<svg version="1.2" xmlns="http://www.w3.org/2000/svg" viewBox="0 0 1585 1604" width="1585" height="1604">
	<title>MEOH_BIG copy-svg</title>
	<defs>
		<clipPath clipPathUnits="userSpaceOnUse" id="cp1">
			<path d="m-2626.65 0.65h4211.65v1603.35h-4211.65z"/>
		</clipPath>
	</defs>
	<style>
		.s0 { fill: #00a7ce } 
		.s1 { fill: #ffffff } 
	</style>
	<g id="Clip-Path: Clip-Path" clip-path="url(#cp1)">
		<g id="Clip-Path">
			<g id="g210" style="opacity: .9">
				<path id="Layer" fill-rule="evenodd" class="s0" d="m984.1 27.9v-2.6q8.5 2.1 17 4.5 8.5 2.1 16.7 4.8 8.5 2.6 16.7 5.3 8.2 2.6 16.4 5.8c-6.3 11.1-17.5 18.3-31 18.3-19.6 0-35.8-16.2-35.8-36.1zm79.5 53.6q0-3.7 0.8-7.4 1.1-3.8 2.7-7.2 1.8-3.4 4.2-6.4 2.4-2.9 5.6-5 6.4 2.7 13 5.3 6.3 2.9 12.7 5.6 6.4 2.9 12.7 5.8 6.4 2.9 12.8 5.8l0.7 4.3c0 17.5-14 32.3-32.3 32.3-18.3 0-32.9-14.8-32.9-33.1zm77.2 54c0-17.4 14-32.3 32.3-32.3l4.3 0.8 20.9 11.9c4.2 5.6 7.1 12 7.1 19.6 0 17.8-14 32.4-32.3 32.4-18.3 0-33.1-14.1-32.3-32.4zm108.6 85.1c-17.4 0-31.5-14.1-31.5-31.7 0-17.5 14.1-31.6 31.5-31.6 17.5 0 31.6 14.1 31.6 31.6 0 17.6-14.1 31.7-31.6 31.7zm47.8 22.5c0-15.3 12.7-28.1 28.1-28.1l5 0.8 21.7 21 0.8 6.3c0 3.8-0.8 7.2-2.1 10.6-1.3 3.2-3.5 6.4-6.1 8.8-2.4 2.6-5.6 4.5-8.7 6.1-3.5 1.3-6.9 1.8-10.6 2.1-14.6 0-27.3-12.7-28.1-27.6zm73.6 54.1q0.3-3.7 1.1-7.2 1.1-3.7 2.7-6.8 1.8-3.5 4.2-6.1 2.4-3 5.6-5.1 5 5.6 10 11.2 5.1 5.5 9.8 11.4 4.8 5.8 9.6 11.6 4.7 6.1 9 12.2c-5.6 4.8-12.5 8.5-20.9 8.5-17 0-30.3-14.1-31.1-29.7zm-597.9-296.5c5.6 0 24.1 0 29.9 0q8.5 0.2 17.3 0.5 8.4 0.5 17.2 1 8.5 0.6 17.2 1.4c-3.7 19.6-20.4 34.9-40.8 34.9-21.7 0-39.2-16.1-40.8-37.8zm102.6 86.3c-4.8-2.1-9.1-4.7-12.8-8.4-3.4-3.5-6.3-7.7-8.2-12.5-1.8-4.8-2.9-9.8-2.9-14.8 0-5.1 1.1-10.1 2.9-14.9 2.1-4.5 4.8-8.7 8.5-12.4 3.4-3.5 7.7-6.4 12.5-8.2 4.7-2.2 9.5-3.2 14.8-3.2 5 0 10.1 1 14.6 3.2 4.8 1.8 9 4.7 12.4 8.2 3.7 3.7 6.4 7.9 8.5 12.4 1.9 4.8 2.9 9.8 2.9 14.9 0 5-1 10-2.9 14.8-2.1 4.5-4.8 8.8-8.5 12.5-3.4 3.4-7.6 6.3-12.4 8.2-4.5 2.1-9.6 3.2-14.6 3.2-5.3 0-10.3-1.1-14.8-3zm51.9 18.3c0-10.3 4.3-20.4 11.4-27.8 7.4-7.2 17.5-11.4 27.8-11.4 10.6 0 20.4 4.2 27.9 11.4 7.4 7.4 11.4 17.5 11.6 27.8 0 21.8-17.7 39.5-39.5 39.5-22.5 0-40-18.3-39.2-39.5zm115.2 89.3c-20.2 0-36.5-16.3-36.5-36.5 0-20.3 16.3-36.6 36.5-36.6 20.1 0 36.4 16.3 36.4 36.6 0 20.2-16.3 36.5-36.4 36.5zm104.8 45.4c-7.4 7.4-17.2 11.4-27.8 11.4-10.4 0-20.4-4-27.6-11.4-7.4-7.5-11.7-17.3-11.7-27.9 0-10.3 4.3-20.4 11.7-27.5 7.2-7.4 17.2-11.7 27.6-11.7 10.6 0 20.4 4.3 27.8 11.7 7.4 7.1 11.7 17.2 11.7 27.5 0 10.6-4.3 20.4-11.7 27.9zm48.1 61.4c-19.9 0-35.9-15.9-35.9-35.7 0-19.8 16-35.8 35.9-35.8 19.9 0 35.9 16 35.9 35.8 0 19.8-16 35.7-35.9 35.7zm76.5-16.7c9 0.3 17.5 4 23.6 10.4 6.1 6.3 9.5 15.1 9.5 24.1 0 8.7-3.4 17.5-9.5 23.9-6.1 6.3-14.6 10-23.6 10.6-18.8 0-34.5-15.7-34.5-34.5 0-19.1 15.7-34.5 34.5-34.5zm76.4 120.9c-17.8 0-32.2-14.5-32.2-32.3 0-17.9 14.4-32.4 32.2-32.4 17.9 0 32.2 14.5 32.2 32.4 0 17.8-14.3 32.3-32.2 32.3zm76.5 49c-15.5 0-28.1-12.5-28.1-28.1 0-15.5 12.6-28.1 28.1-28.1 15.5 0 28.1 12.6 28.1 28.1 0 15.6-12.6 28.1-28.1 28.1zm47.7 25.5c0-16.2 13.5-29.5 29.4-29.5l3.8 0.6 20.4 45.8c-5.9 7.7-14.9 12.5-24.7 12.5-16.2 0-29.4-13.3-28.9-29.4zm-712.7-365c-22.7 0-41.1-18.5-41.1-41.4 0-23 18.4-41.5 41.1-41.5 22.7 0 41.1 18.5 41.1 41.5 0 22.9-18.4 41.4-41.1 41.4zm199.1 66.3c0 6.1-1.4 11.9-3.8 17.5-2.1 5.5-5.5 10.8-9.8 15.1-4.5 4.2-9.5 7.7-15.1 10.1-5.5 2.3-11.6 3.4-17.7 3.7-25.2 0-46.2-21.2-46.2-46.4 0-6.1 1.1-12.2 3.5-17.8 2.4-5.8 5.6-10.8 10.1-15.1 4.2-4.2 9.2-7.7 14.8-10 5.8-2.4 11.7-3.5 17.8-3.5 25.9 0 47.1 20.9 46.4 46.4z"/>
				<path id="path192" fill-rule="evenodd" class="s0" d="m945.7 234.7c0-5.6 1.1-11.4 3.2-16.7 2.4-5.1 5.5-10.1 9.5-14.1 4-4 8.8-7.1 14.1-9.3 5.3-2.3 10.8-3.4 16.7-3.4 5.5 0 11.4 1.1 16.7 3.4 5.3 2.2 10 5.3 14 9.3 4 4.3 7.2 9 9.3 14.1 2.4 5.3 3.4 11.1 3.4 16.7 0 5.8-1 11.4-3.4 16.7-2.1 5.3-5.3 10-9.3 14-4 4-8.7 7.4-14 9.5-5.3 2.2-11.2 3.5-16.7 3.5-23.9 0-43-19.9-43.5-43.7zm77.1 54c0-5.5 1.1-11.1 3.2-16.4 2.1-5 5.3-9.8 9.3-13.8 4-4 8.7-7.1 14-9.3 5.1-2.1 10.6-3.1 16.5-3.1 5.5 0 11.1 1 16.4 3.1 5 2.2 9.8 5.3 13.8 9.3 4 4 7.1 8.8 9.3 13.8 2.1 5.3 3.1 10.9 3.1 16.4 0 24.1-18.8 43-42.6 43-23.4 0-43-19.7-43-43zm104.7 89.1c-4.7-1.9-9-4.8-12.4-8.2-3.7-3.8-6.7-8-8.5-12.5-1.9-4.8-2.9-9.8-2.9-14.8 0-5.1 1-10.1 2.9-14.6 1.8-4.8 4.8-9 8.5-12.7 3.4-3.5 7.7-6.4 12.4-8.3 4.5-2.1 9.6-3.1 14.6-3.1 5 0 10.1 1 14.8 3.1 4.5 1.9 8.8 4.8 12.5 8.3 3.4 3.7 6.4 7.9 8.2 12.7 2.1 4.5 3.2 9.5 3.2 14.6 0 5-1.1 10-3.2 14.8-1.8 4.5-4.8 8.7-8.2 12.5-3.7 3.4-8 6.3-12.5 8.2-4.7 2.1-9.8 3.1-14.8 3.1-5 0-10.1-1-14.6-3.1zm91.2 59.3c-22.9 0-41.3-18.5-41.3-41.4 0-23 18.4-41.5 41.3-41.5 22.9 0 41.3 18.5 41.3 41.5 0 22.9-18.4 41.4-41.3 41.4zm76.5 49.9c-20.6 0-37.3-16.7-37.3-37.3 0-20.6 16.7-37.2 37.3-37.2 20.6 0 37.2 16.6 37.2 37.2 0 20.6-16.6 37.3-37.2 37.3zm100.8-8c6.4 6.4 10.1 15.1 10.1 24.1 0 9.3-3.7 18-10.1 24.4-6.3 6.6-15.1 10.1-24.4 10.1-9-0.3-17.5-4-23.6-10.4-6.1-6.6-9.5-15.1-9.5-24.1 0-8.7 3.4-17.5 9.5-23.8 6.1-6.4 14.6-10.1 23.6-10.6 9.3 0 18.1 3.7 24.4 10.3zm51.4 46.6c4 0 8 1.1 11.7 2.4 4 1.6 7.2 4 10.1 6.9 2.9 2.9 5.3 6.1 6.6 10.1 1.6 3.7 2.4 7.7 2.6 11.7-0.2 3.9-1 7.9-2.6 11.6-1.3 4-3.7 7.2-6.6 10.1-2.9 2.9-6.1 5.3-10.1 6.9-3.7 1.3-7.7 2.4-11.7 2.4-3.9 0-7.9-1.1-11.6-2.4-4-1.6-7.2-4-10.1-6.9-2.9-2.9-5.3-6.1-6.6-10.1-1.6-3.7-2.4-7.7-2.7-11.6 0-17.5 14.1-31.1 31-31.1zm76.6 58.4c14.1 0 26 11.3 25.7 26.2 0 6.9-2.6 13.2-7.4 18.3-5 4.7-11.4 7.4-18.3 7.4-6.9 0-13.5-2.7-18.5-7.4-4.8-5.1-7.4-11.4-7.4-18.3 0-14.9 11.9-26.2 25.9-26.2zm-402.3-111.6c0-5.9 1.3-11.4 3.4-16.7 2.2-5.3 5.3-10.1 9.6-14.1 4-4.2 8.7-7.4 14-9.5 5.3-2.1 10.9-3.4 16.7-3.4 5.6 0 11.2 1.3 16.5 3.4 5.3 2.1 10 5.3 14 9.5 4.2 4 7.4 8.8 9.5 14.1 2.2 5.3 3.5 10.8 3.5 16.7 0 5.5-1.3 11.4-3.5 16.4q-3.1 8-9.5 14.3c-4 4-8.7 7.2-14 9.3-5.3 2.4-10.9 3.4-16.5 3.4-23.8 0-43.7-19.6-43.7-43.4zm120.1 14c21.7 0 39.2 17.5 39.2 39.2 0 10.6-4 20.5-11.4 27.9-7.4 7.4-17.5 11.6-27.8 11.6-10.4 0-20.4-4.2-27.9-11.6-7.1-7.4-11.4-17.3-11.4-27.9 0-20.9 17.5-38.6 39.3-39.2zm76.6 129.4c-19.8 0-35.8-16.1-35.8-36 0-19.8 16-35.9 35.8-35.9 19.7 0 35.7 16.1 35.7 35.9 0 19.9-16 36-35.7 36zm75.8 53.2c-19.8 0-35.8-16-35.8-35.8 0-19.7 16-35.7 35.8-35.7 19.8 0 35.7 16 35.7 35.7 0 19.8-15.9 35.8-35.7 35.8zm76.4 50.1c-17.8 0-32.2-14.4-32.2-32.3 0-17.9 14.4-32.4 32.2-32.4 17.8 0 32.2 14.5 32.2 32.4 0 17.9-14.4 32.3-32.2 32.3zm76.9 48.5c-15.3 0-27.7-12.3-27.7-27.4 0-15.2 12.4-27.5 27.7-27.5 15.3 0 27.7 12.3 27.7 27.5 0 15.1-12.4 27.4-27.7 27.4zm-359.8-210.9c24.6 0 45 21.2 45 45.5 0 6.1-1.3 12-3.4 17.3-2.4 5.5-5.6 10.3-9.8 14.5-4.2 4.3-9 7.5-14.6 9.8-5.3 2.2-11.1 3.5-17.2 3.5-24.4 0-44.8-19.6-44.8-45.1 0-25.1 20.4-44.8 44.8-45.5zm34.4 99.1c0-23.4 19.1-42.2 42.2-42.2 5.6 0 10.9 1.1 16.2 3.2 5 2.1 9.5 5.3 13.5 9.3 4 3.7 7.1 8.5 9.3 13.5 2.1 5.3 3.1 10.6 3.1 16.2 0 23-19.1 42.1-42.1 42.1-23.1 0-41.4-19.1-42.2-42.1zm118.7 90.6c-20.2 0-36.5-16.3-36.5-36.6 0-20.2 16.3-36.5 36.5-36.5 20.1 0 36.4 16.3 36.4 36.5 0 20.3-16.3 36.6-36.4 36.6zm76.4 49.3c-17.9 0-32.3-14.5-32.3-32.3 0-17.9 14.4-32.4 32.3-32.4 17.9 0 32.4 14.5 32.4 32.4 0 17.8-14.5 32.3-32.4 32.3zm76.6 53.3c-17.9 0-32.3-14.5-32.3-32.4 0-17.8 14.4-32.3 32.3-32.3 17.9 0 32.4 14.5 32.4 32.3 0 17.9-14.5 32.4-32.4 32.4zm80.3-6.1q1.9 0.2 3.7 0.8 1.9 0.2 3.8 1 1.8 0.6 3.4 1.6-0.3 6.1-0.5 12.2-0.6 6.4-1.1 12.5-0.5 6.1-1.1 12.2-0.7 6.1-1.5 12.1-5.3 2.2-10.6 2.2c-15.4 0-28.1-12.5-28.1-27.3 0-14.9 12.7-27.3 28.1-27.3q2.1-0.3 3.9 0zm-287-14.9c-23.5 0-42.4-18.8-42.4-42.1 0-23.3 18.9-42.1 42.4-42.1 23.4 0 42.4 18.8 42.4 42.1 0 23.3-19 42.1-42.4 42.1zm76.8 49.9c-20.9 0-37.9-17-37.9-37.9 0-21 17-37.9 37.9-37.9 21 0 38 16.9 38 37.9 0 20.9-17 37.9-38 37.9zm76.5 47.9c-17.8 0-32.2-14.5-32.2-32.4 0-18 14.4-32.5 32.2-32.5 17.8 0 32.2 14.5 32.2 32.5 0 17.9-14.4 32.4-32.2 32.4zm48.4 21.8c0-15.7 13.2-28.1 28.1-28.1 14.8 0 27.3 13.2 27.3 28.1 0 3.4-0.5 7.1-1.9 10.3-1.6 3.4-3.4 6.4-6.1 9-2.4 2.4-5.5 4.5-8.7 5.8-3.5 1.4-6.9 2.2-10.6 2.2-15.4 0-28.1-12-28.1-27.3zm-254.7-128c5.5 0 11.1 1 16.4 3.1 5.3 2.2 10.1 5.3 14.1 9.3 3.9 4 7.1 8.8 9.2 14.1 2.2 5 3.2 10.8 3.2 16.4 0 5.5-1 11.1-3.2 16.4-2.1 5.1-5.3 9.8-9.2 13.8-4 4-8.8 7.2-14.1 9.3-5.3 2.4-10.9 3.4-16.4 3.4-5.6 0-11.2-1-16.5-3.4-5.3-2.1-9.8-5.3-14-9.3-4-4-6.9-8.7-9-13.8-2.4-5.3-3.5-10.9-3.2-16.4 0-23.3 18.8-42.2 42.7-42.9zm76.6 54c5.5 0 11.1 1.1 16.4 3.2 5 2.1 9.8 5.3 13.8 9.3 4 3.9 7.1 8.7 9.3 14 2.1 5.3 3.1 10.9 3.1 16.4 0 5.6-1 11.2-3.1 16.5-2.2 5.3-5.3 10-9.3 14-4 4-8.8 7.2-13.8 9.3-5.3 2.1-10.9 3.2-16.4 3.2-23.9 0-43-19.1-43-43 0-23.8 19.1-42.9 43-42.9zm76 134.4c-20.8 0-37.6-16.8-37.6-37.7 0-20.8 16.8-37.6 37.6-37.6 20.9 0 37.7 16.8 37.7 37.6 0 20.9-16.8 37.7-37.7 37.7zm76.9 46.9c-17.4 0-31.5-14.1-31.5-31.6 0-17.4 14.1-31.5 31.5-31.5 17.4 0 31.5 14.1 31.5 31.5 0 17.5-14.1 31.6-31.5 31.6zm76.6-5.6l6.9 1.6-18.3 50.6c-9.8-4.2-16.2-13.5-16.2-24.6 0-14.9 12-26.8 27.6-27.6zm-322.6-72.9c2.2-5.3 5.3-9.8 9.3-13.7 3.7-4 8.5-6.9 13.5-9.1 5.1-2.1 10.6-3.4 16.2-3.4 23.1 0 42.1 19.1 42.1 42.1 0 23.4-19 42.4-42.1 42.4-23.3 0-42.1-19-42.1-42.4 0-5.3 1-10.8 3.1-15.9zm115.5 106.8c-20.2 0-36.5-16.3-36.5-36.5 0-20.3 16.3-36.6 36.5-36.6 20.1 0 36.4 16.3 36.4 36.6 0 20.2-16.3 36.5-36.4 36.5zm76.4 53.3c-20.2 0-36.5-16.3-36.5-36.6 0-20.2 16.3-36.5 36.5-36.5 20.3 0 36.6 16.3 36.6 36.5 0 20.3-16.3 36.6-36.6 36.6zm103.1 1.3l-22.2 45.9-4.3 0.8c-4.2-0.3-8.2-1.1-11.9-2.7-3.7-1.6-7.1-3.7-10.1-6.6-2.6-2.9-5-6.4-6.6-10.1-1.6-3.7-2.4-7.7-2.4-11.6 0-4 0.8-8.2 2.4-12 1.6-3.7 4-6.8 6.6-9.8 3-2.9 6.4-5.3 10.1-6.8q5.6-2.4 11.9-2.4c11.2 0 21 6.3 26.5 15.3zm-248.3 22.6c-5-2.2-9.6-5.3-13.3-9-3.7-3.8-6.6-8.3-8.4-13.3-2.2-5-3-10.3-3-15.6 0-22.6 17.5-40.8 40.1-40.8 10.8 0 21.2 4.5 28.9 11.9 7.6 7.7 11.9 18 11.9 28.9 0 10.8-4.3 21.2-11.9 28.9-7.7 7.6-18.1 11.9-28.9 11.9-5.3 0-10.6-1.1-15.4-2.9zm91.6 51.4c-19.6 0-35.4-15.9-35.4-35.5 0-19.7 15.8-35.5 35.4-35.5 19.5 0 35.3 15.8 35.3 35.5 0 19.6-15.8 35.5-35.3 35.5zm106.4 18.3v1.3l-16.2 24.6q-1.6 0.8-3.2 1.6-1.6 0.6-3.4 1.1-1.6 0.2-3.2 0.5-1.8 0.3-3.7 0.3c-16.2 0-29.4-13.3-29.4-29.4 0-16.2 13.2-29.5 29.4-29.5 16.2 0 29.7 13.3 29.7 29.5zm-236.3 9.8c-22.4 0-40.4-18.1-40.4-40.4 0-22.4 18-40.5 40.4-40.5 22.3 0 40.4 18.1 40.4 40.5 0 22.3-18.1 40.4-40.4 40.4zm111.7 28.1c-1.8 4.7-4.8 9-8.2 12.4-3.7 3.7-8 6.4-12.7 8.5-4.5 1.9-9.6 2.9-14.6 2.9-5 0-10.1-0.8-14.9-2.9-4.7-1.9-9-4.8-12.4-8.2-3.7-3.7-6.6-8-8.5-12.7-1.8-4.5-2.9-9.6-2.9-14.9 0-5 1.1-10.1 2.9-14.6 1.9-4.7 4.8-9 8.5-12.7 3.4-3.4 7.7-6.3 12.4-8.2 4.8-2.1 9.9-2.9 14.9-2.9 5 0 10.1 1.1 14.6 2.9 4.7 1.9 9 4.8 12.7 8.5 3.4 3.4 6.4 7.7 8.2 12.4 2.1 4.8 2.9 9.6 3.2 14.6-0.3 5.3-1.1 10.1-3.2 14.9zm72.6 35.7l-29.7 35.3h-1.8c-17.8 0-32.3-14.9-32.3-32.3 0-17.5 14.5-32.4 32.3-32.4 16.7 0 29.9 12.7 31.5 29.4zm-238 14.9c-23.8 0-43.5-18.8-43.5-43 0-5.5 1.1-11.4 3.5-16.4 2.1-5.3 5.3-10.1 9.3-14.3 3.9-4 8.7-7.2 14-9.3 5.3-2.4 10.9-3.4 16.7-3.4 5.8 0 11.4 1 16.7 3.4 5.3 2.1 10.1 5.3 14.1 9.3q5.9 6.4 9.5 14.3c2.1 5.3 3.2 10.9 3.2 16.4 0 24.2-19.6 43.8-43.5 43zm76.5 47.9c-20.2 0-36.5-16.3-36.5-36.5 0-20.3 16.3-36.6 36.5-36.6 20.1 0 36.4 16.3 36.4 36.6 0 20.2-16.3 36.5-36.4 36.5zm104.5 1.4c-14.5 14.8-30.2 28.9-45.5 42.1-9.1-5.6-14.9-15.4-14.9-26.8 0-18.2 14.9-32.3 32.4-32.3 12.7 0 22.5 7.2 28 17zm-234.3 29.4c-24.6 0-45-19.6-45-45.1 0-25.1 19.9-45.5 45-45.5 5.9 0 12 1 17.5 3.4 5.6 2.4 10.6 5.8 14.9 10.1 4.2 4.2 7.4 9.2 9.8 14.8 2.4 5.3 3.4 11.4 3.4 17.2 0 25.5-20.4 45.9-45.6 45.1zm91.2-26.5c4.8 1.8 9 4.8 12.7 8.2 3.5 3.7 6.4 8 8.3 12.7 1.8 4.8 2.9 9.8 2.9 14.9 0 5-0.8 10-2.7 14.8-2.1 4.8-4.7 9-8.5 12.5-3.7 3.7-7.9 6.6-12.4 8.4-4.8 1.9-9.8 3-15.1 3-5.1 0-10.1-1.1-14.9-3-4.7-1.8-9-4.7-12.4-8.4-3.7-3.5-6.7-7.7-8.5-12.5-1.9-4.8-2.9-9.8-2.7-14.8 0-22 17.5-38.7 38.5-38.7 5.3 0 10.3 1 14.8 2.9zm61.8 54.6q1.8 0 3.7 0.2 1.6 0 3.4 0.6 1.9 0.2 3.5 0.8 1.8 0.5 3.4 1.3-5.8 4.8-11.6 9.3-5.9 4.5-12 9-5.8 4.5-11.9 9-6.1 4.2-12.2 8.5l-0.8-4.3c0-18.8 15.7-34.4 34.5-34.4zm-206.2-38.7c5.3 0 10.8 1.3 15.9 3.4 5.3 2.2 9.8 5.1 13.8 9 3.9 4 6.8 8.8 9 13.8 2.1 5.1 3.1 10.6 3.1 16.2 0 23-18.8 42.1-41.8 42.1-23.4 0-42.2-19.1-42.2-42.1 0-23.3 18.8-42.4 42.2-42.4zm90.9 60.7c4.7 1.8 9 4.7 12.4 8.5 3.5 3.4 6.1 7.9 8 12.4 1.6 4.8 2.4 9.8 2.4 14.9 0 8.4-2.1 15.3-6.4 21.7l-31.5 16.9c-21.2-0.8-37.9-16.9-37.9-38.6 0-21.8 17.5-38.7 38.4-38.7 5 0 10.1 1 14.6 2.9zm-101.5 58.3c0 5.5-1.1 11.1-3.2 16.4-2.1 5-5.3 9.8-9.3 13.8-4 4-8.7 7.1-14 9.3-5.1 2.1-10.6 3.4-16.5 3.1-5.5 0.3-11.1-1-16.4-3.1-5-2.2-9.8-5.3-13.8-9.3-4-4-7.1-8.8-9.3-13.8-2.1-5.3-3.1-10.9-3.1-16.4 0-5.9 1-11.4 3.1-16.5 2.2-5.3 5.3-10 9.3-14 4-4 8.8-7.2 13.8-9.3 5.3-2.1 10.9-3.2 16.4-3.2 23.4 0 42.2 19.1 43 43zm33.6 14q4 0 8 0.8 4 0.8 7.7 2.4 3.7 1.6 7.1 4 3.2 2.4 6.1 5.5c-22.5 10.4-45 18.9-68.1 27.3v-0.8c0-20.9 17.5-38.6 39.2-39.2zm-91.9 57q-9.3 2.7-18.9 5-9.2 2.4-18.8 4.5-9.5 2.2-19.1 3.8-9.5 1.8-19.1 3.4c-1.3-3.4-2.1-6.9-2.1-11.1 0-21.8 17.5-39.5 39.3-39.5 19.8 0 35.7 14.8 38.7 33.9zm-862.5-1239.2l3.4-8q16.2-21.7 33.4-42.4 17.5-20.6 36.3-40 18.9-19.6 38.7-37.6 19.9-18.3 41.1-35.3l9.3-4.2c-17 18.3-28.9 36.6-33.9 52.7-49.1 32.4-92 70.3-128.3 114.8zm383.2 388l-72.3-109.2 2.1-0.5 18.8-6.4 9.8-3.5 29.7-10.6c45.6-16.9 91.2-37.3 136-59.8l6.3-3.5 24.7 49.3h-60.4zm-116.9-534.8q-13.3 13.2-25.7 27.3-12.8 14-24.4 28.6-11.9 14.6-23.3 29.7c-18.9-0.8-34.2-4.2-44-10.6q16.4-14.6 33.9-28.1 17.5-13.5 35.5-26.2 18.3-12.8 36.8-24.4 18.9-11.7 38.2-22.5-13.8 12.7-27 26.2zm6.1 72.9c-25.5 7.7-49.3 11.9-69.5 12.7q11.7-15.6 24.4-30.7 12.5-15.1 25.7-29.7 13.5-14.3 27.6-28.1 14-13.8 28.9-26.8c-14.9 30.2-27.3 64.7-37.1 102.6zm79.5 1275.5q7.4 4.2 14.6 8.2 7.4 4 14.8 8 7.7 3.7 15.1 7.4l9.8 4.8q-13.5-4.3-27-9.3-13.3-4.8-26.5-10.4-13.3-5.3-26.5-11.1-13-5.8-25.7-11.9 4.5 0.8 9.2 1.6 4.6 0.8 9.3 1.3 4.5 0.8 9.3 1.3 4.5 0.8 9.3 1.4 7.1 4.5 14.3 8.7zm-347.8-967.6c-30.7 0-58.8 5.6-83.4 15.4 7.6-19.6 15.3-38.7 24.6-57.5q6.4-13 13.3-26 6.8-12.7 14-25.4 7.4-12.5 15.1-24.9 7.7-12.2 15.9-24.2l0.5 0.6 9.3 7.7 2.1 1.6 11.2 6.3c16.1 8.2 37.1 13.3 60.9 15.4l-6.9 18.3c-12.7 30.2-22.5 61.2-32.3 92.7l-1.3 4.3c-13.5-2.9-28.1-4.3-43-4.3zm49.9 7.2l1.3-4.3c10.1-30.2 19.9-62 31.8-90.9l9-21.7h11.9c43.5 0.8 89.1-7.7 131.2-18.3l5.6-1.3-0.5 12.7q-0.6 15.7-0.8 31.6-0.3 15.9-0.3 31.5 0 15.9 0.5 31.8 0.6 15.6 1.1 31.5h-62.3l37.1 52q-6.9 1.8-13.8 3.4-6.8 1.6-13.7 2.9-6.9 1.6-13.8 2.7-7.2 1.3-14.1 2.4c-25.9-34-63-57.8-110.2-66zm311.7-358.1l-35.8-70.2 14 2.1c26.5 4.3 52.5 12 78 21.2l18.8 6.9q-8 5.9-15.9 11.4-8.2 5.3-16.5 10.4-8.4 5.3-16.9 9.8-8.5 4.7-17.2 9.2l-6.4 3zm-5 6.8l-6.9 3q-8.8 4.5-17.5 8.7-9 4.2-18.1 8-9 3.7-18.2 7.1-9.3 3.5-18.6 6.4c11.1-40 25.2-76.6 41.4-107.6l35.7 70.2zm7.2-45.6q0 2.4 0.8 4.8 1 2.4 2.9 4.2 1.6 1.6 4 2.7 2.4 1 4.8 1 2.6 0 5-1 2.4-1.1 4-2.7 1.8-1.8 2.9-4.2 0.8-2.4 0.8-4.8c0-7.1-5.6-12.7-12.7-12.7-6.9 0-12.5 5.6-12.5 12.7zm-1.6-65.7q5.6-3.7 11.1-7.4 5.9-3.7 11.7-7.2 5.8-3.4 11.7-6.9 11.9-7.4 24.3-14.5 12.5-6.9 25-13.3 12.7-6.4 25.7-11.9 13-5.9 26.2-10.9l9.8 5.6q1.3 1 2.7 2.1 1.3 1.3 2.6 2.6 1.1 1.4 2.1 2.7 0.8 1.6 1.6 3.2l2.9 7.7-3.7 0.8c-54.6 12.7-109.4 30.2-160.6 53.2l-4.2 2.1q5.5-3.9 11.1-7.9zm131.5 8.7h3.4l-3.4 4.3q-3.7 4.2-7.7 8.5-4 3.9-8 7.9-3.9 4-8.2 7.7-4.2 4-8.5 7.4l-15.3 12.7-29.7-10.6c-23.1-7.6-45.6-14-69.5-18.8l-5.5-1.6h0.8q14-2.9 28.1-5.3 14.3-2.4 28.3-4.2 14.3-1.9 28.6-3.5 14.4-1.3 28.7-2.3h1.3zm-74.5-84.3l8.5-1.6c23.1-2.7 42.9-3.4 58.3 0-32.3 12.7-63.1 28.9-93.3 47.2q-7.7 4.7-15.1 9.8-7.2 4.7-14.6 10-7.1 5.1-14.3 10.4-7.1 5.3-14.3 10.6l4.2-7.2c25.2-32.8 52-58.8 80.6-79.2zm97 35.8l4.3-0.8c-0.8 11.9-6.4 25.9-17.8 41.6h-2.6c-48.6 0.5-96.3 4.7-144 14l-2.9 0.8 4.3-1.6q14.5-6.3 29.1-12.4 14.6-5.9 29.4-11.4 14.9-5.6 30-10.4 15.1-5 30.2-9.2l5.6-1.6zm-637.2 927.3l-10.6-12.8-6.4-29.4c36.6 30.2 85.6 47.7 147.4 47.7h7.7l2.1 13.6 4.2 19.6 4.3 23-5.6-0.5c-32.3-4.3-63.1-11.4-92.8-24.7l-11.1-5.5q-5.3-3.2-10.3-6.4-5.1-3.4-9.8-7.1-4.8-3.7-9-7.7-4.6-4-8.8-8.5zm129.1-73.7v1.3c-65.2-1.3-110.8-36.5-121.4-99.9l9.3 5.9c29.4 17.5 64.4 25.9 98.8 30.2l9.8 1.3v14zm149.3 471q-6.9-1.6-14.1-3.2-6.9-1.9-14-3.7-6.9-2.1-13.8-4.2l-31.6-14.9c-47.7-47.2-89-100.4-124.3-158.2q6.7 4.5 13.6 8.7 6.8 4 14 7.5 6.9 3.4 14.3 6.6 7.4 2.9 15.1 5.3l18.3 5.6c15.9 3.7 32.1 7.1 49 9.2l12.8 1.4 8.2 15.6c23.3 44.2 52.7 89 85.1 127.2l2.6 3.4h-2.1l-18.8-3.4q-7.2-1.3-14.3-2.9zm160.3 118.7c-22.5-3.4-42.1-8.5-59.6-15.4q-21-11.4-41.4-24.3-20.1-12.8-39.5-26.8-19.3-14.1-37.9-29.2-18.2-15.1-35.7-31.5l9.2 4.2q6.9 2.7 14.1 4.8 7.1 2.4 14.3 4.3 7.2 2.1 14.3 3.7 7.4 1.6 14.9 2.6l29.4 4.3h1.3c30.2 33.9 62.6 64.1 97 89.3zm112.9-271.4l-11.9-23.1c73.7-19.1 150-45 227.4-77.4q17.2-6.8 34.2-14.3 17-7.4 33.7-15.1 16.9-7.9 33.6-15.9 16.7-8.2 33.1-16.4l6.4-3.7 45.6 90.9q-0.8-0.8-1.9-1.6-1-0.5-2.1-1.1-1-0.5-2.1-0.8-1.1-0.2-2.4-0.2c-6.9 0-12.4 5.8-12.4 12.7q0 2.6 0.8 4.8 1 2.4 2.9 4.2 1.6 1.9 3.9 2.7 2.4 1 4.8 1 2.7 0 5.1-1 2.1-0.8 3.9-2.7 1.9-1.8 2.7-4.2 1-2.2 1-4.8v-1.3l24.7 49 2.6 6.4-6.3 3.7c-35.8 18.3-72.9 35-110 51.1l-31 12.7c-65.2 26-132 49.3-199.3 67.6l-11.2 2.7-7.7-11.2c-14.8-21.2-28.9-44.2-42.1-66.7l-20.4-35.8zm327.9 6.9q0 2.6 1 5 1.1 2.4 2.9 4.2 1.9 1.9 4.3 3 2.4 1 5 1 2.7 0 5-0.8 2.4-1 4.5-2.9 1.9-1.8 2.7-4.5 1.1-2.4 1.1-5 0.2-2.7-0.8-5.1-1.1-2.6-3-4.5-1.8-1.8-4.5-2.9-2.3-1-5-0.8c-7.2 0-13.2 6.4-13.2 13.3zm-71.1-54.9q0 1.3 0.5 2.7 0.6 1.3 1.6 2.3 1.1 1.1 2.4 1.6 1.1 0.6 2.7 0.6c1.6-0.3 3.4-1.1 4.5-2.4 1.3-1.3 2.1-2.9 2.1-4.8 0-1.8-0.8-3.4-2.1-4.8-1.1-1.3-2.9-2.1-4.5-2.1-4.3 0-7.2 2.7-7.2 6.9zm39.2-839.3l17 14-11.9 9.3c-18.8 14.9-38.7 28.1-58.3 42.2l-26 16.9q-15.6 9.8-31.3 19.4-15.9 9.5-32.1 18.5-15.9 9.3-32.3 18-16.2 8.8-32.6 17l-6.4 2.9-4.2-7.7-74.5-148.4 6.4-2.6c37.1-19.1 72.9-39.5 106-62q6.4-4.3 12.7-8.5 6.4-4.5 12.5-8.8 6.4-4.5 12.4-9.2 6.1-4.5 12.2-9.3l13.3 8.5 34.4 23.8 12 9 21.7 17 14.1 11.4 20.4 16.1zm-111.6-17.7c0-4.8-4.3-9-9.3-9-4.8 0-9 4.2-9 9q0 1.8 0.8 3.4 0.5 1.9 1.8 2.9 1.4 1.4 3 2.2 1.8 0.8 3.4 0.8c5 0 9.3-4.3 9.3-9.3zm77.1 51.4c0-5-4.2-9.3-9-9.3-5 0-9.3 4.3-9.3 9.3q0 1.9 0.8 3.4 0.8 1.6 1.9 3 1.3 1.3 3.2 1.8 1.5 0.8 3.4 0.8c4.8 0 9-3.4 9-9zm-577.5 858.1l-13.6-0.5-6.8-14.8q-8.3-17.3-15.7-35-7.1-17.5-13.8-35.5-6.3-18.1-12.2-36.1-5.5-18.3-10.3-36.8l-4.8-19.6 7.7 0.5c89.1 6.4 183.2-8.5 270.1-29.4l16.2-4.3 7.1 19.7 3.5 10.6 11.9 31.5q5.8 14.8 11.9 29.4 6.1 14.6 12.5 29.2 6.6 14.5 13.2 28.8 6.7 14.4 13.6 28.7l-26 6.3c-76.6 17.5-155.1 30.2-234.3 28.9h-16.2zm242-1025.3z"/>
				<path id="path194" fill-rule="evenodd" class="s0" d="m740.8 1481.8l-5-5q-10.1-10.1-19.9-20.1-9.5-10.4-18.8-21.3-9.3-10.6-18-21.7-8.8-11.1-17-22.8l-8.5-11.1 14.9-4.2c66-17.5 130.4-40.1 193.7-66l30.8-12.8c37.1-16.1 74.4-33.6 111-51.9l6.1-3.7 43.7 86.7 4-1.6 3.7-2.2-38.1-75.8c3.4 3.8 9 5.9 14.8 4.8l5.8-0.5c24.4 0 44.8 19.6 44.8 45 0 5.1-0.8 10.1-2.4 14.9-1.5 4.8-3.9 9.3-7.1 13.2-3.2 4-6.9 7.5-11.1 10.1-4.3 2.7-8.8 4.8-13.8 6.1-10.4 2.1-18.3 11.9-16.2 22.5l1.6 9.8c0 23.1-16.2 42.2-37.4 47.7-10.3 2.2-18.3 12.8-16.1 23.4v5.5c0 24.7-16.7 45.1-39.3 49q-4.3 0.8-7.9 3.2c-2.4 1.6-4.5 3.5-6.1 5.9-1.6 2.3-2.7 5-3.5 7.9-0.5 2.7-0.5 5.6 0 8.5v2.1c0 6.1-1.3 12.2-3.4 17.8-2.4 5.5-5.8 10.6-10.1 15.1-4.2 4.2-9.5 7.7-15.1 10-5.6 2.2-11.7 3.5-17.8 3.5-5 0-9.8-0.8-14.5-2.4-4.8-1.6-9.3-4-13.3-7.2-4-2.9-7.4-6.6-10.1-10.6q-4.3-6.3-6.3-13.5v-0.8c-1.3-9.2-10.4-15.3-19.6-14-9 1.3-15.4 10.6-14.1 19.6 1.3 9.3 9.3 14.8 19.6 14h5.9c5.3 0.3 10.6 1.4 15.6 3.2 5 2.1 9.8 5.1 13.8 8.8 4 3.4 7.4 7.9 9.8 12.7 2.6 4.8 4.2 10.1 4.8 15.4-28.7 3.7-58.1 5-87.8 5-38.4 0-75.8-2.9-112.9-7.7 21.8-0.8 44.8-2.1 69.5-5q9.5-1.1 18.8-2.4 9.3-1.3 18.5-2.9 9.3-1.6 18.6-3.5 9.3-1.8 18.5-3.9l2.7-4.8-4.8-2.9q-9.3 2.1-18.3 3.9-9.2 1.9-18.5 3.5-9 1.6-18.3 2.9-9.3 1.3-18.6 2.4c-48.5 6.4-91.1 6.4-126.9 0.8q-16.5-4.8-32.1-10.3-15.9-5.6-31.5-12.2-15.4-6.7-30.5-14.1-15.1-7.7-29.4-16.1l14.5 0.5h21.2c52 0 110.8-6.9 174.7-21l44.8-10.6q15.4-3.7 30.8-7.9 15.1-4.2 30.2-8.8 15.1-4.5 29.9-9.5 15.1-5 30-10.3 0.5 2.6 1.8 5 1.6 2.4 3.5 4 2.1 1.8 4.7 2.6 2.7 1.1 5.3 1.1 3.2 0 5.9-1.3 2.9-1.1 5-3.2 2.1-2.4 3.5-5 1-3 1-5.9c0-2.9-0.5-5.8-2.1-7.9 31.8-12 63.9-24.4 96.2-39.3l34.5-16.1 2.1-5.6-5.6-2.1q-15.6 7.4-31.5 14.3-15.7 7.2-31.6 14.1-15.9 6.6-31.8 13.2-16.1 6.4-32.3 12.5l-6.9 2.9c-2.1-1.6-4.2-2.1-7.1-2.1q-2.2-0.3-4.6 0.5-2.3 0.5-4.2 1.8-2.1 1.4-3.4 3.2-1.6 1.9-2.4 4.3l-2.1 0.5c-25.2 9.3-49.9 17.7-75.1 24.6l-16.1 5.1zm278.5-241.5l-3.4-6.8-79.5-158 6.3-2.9q16.7-8.5 33.2-17 16.1-8.7 32.6-17.7 16.1-9 32.3-18.3 15.9-9.3 31.8-18.8l1.3-5.6-5.5-1.3q-15.9 9.3-32.1 18.5-15.9 9-32.3 17.8-16.2 9-32.6 17.7-16.2 8.5-32.9 17l-6.1 2.7-4.2-7.7-83.5-165.9 6.1-2.7q18-9.3 36-18.8 17.8-9.5 35.3-19.3 17.7-9.9 35.2-19.9 17.5-10.4 34.7-20.7c64.5-39.5 124.9-81.6 178.2-125.1l0.8-5.8-5.6-0.5c-53.6 43.4-113.2 85-177.1 124.3q-17.2 10.6-34.4 20.6-17.5 10.4-35.3 20.2-17.5 9.8-35.2 19.3-18 9.5-36.1 18.6l-6.3 2.9-4-8.5-86.4-171.5 6.3-2.9q18.1-9 35.8-18.5 17.8-9.6 35.5-19.6 17.8-9.9 35-20.2 17.5-10.3 34.8-21.2 18.8-11.4 37.1-23.6 18.2-12.2 36.3-25.2 18-12.7 35.5-25.9 17.7-13.3 35-27.1l37.9-31.8 0.5-5.5h-5.6l-34.4 28.9-13.3-14.9q-12.4-13.5-25.1-27-12.5-13.3-25.5-26.5-13-13-26.5-25.7-13.3-13-26.8-25.5l-23-20.9q10.3-8.5 20.1-17 10.1-8.4 19.9-17.4 9.8-8.8 19.1-18.1 9.5-9.2 18.8-18.5v-5.9h-5.6q-9.2 9.6-19.1 18.9-9.5 9-19.3 18-9.8 8.7-19.9 17.5-10.1 8.5-20.4 16.7l-19.1-16.2q-13.8-11.7-28.1-23.3-14.3-11.4-28.9-22.5-14.5-11.2-29.4-21.8-14.8-10.6-29.9-20.9l-10.6-6.9 7.1-5.8c32.9-26.5 63.9-56.7 89.1-91.2l9-14c7.7-12 14-23.4 18.3-34l-2.1-5.5-5.6 2.1c-4.2 9.8-9.8 19.6-16.2 30.2l-35.8-7.7-4.7 3.5 3.4 5 32.4 6.9-5.6 8.5c-25.5 33.6-57 63.8-89.3 90.6l-8.5 6.4q-73.7-47.5-143.1-75.8l12.7-9.8c11.9-10.6 23.8-22 34.4-34.5l6.1-7.9q9.8 0.2 19.4 0.2 9.5 0.3 19.1 0.8 9.5 0.6 19.1 1.1 9.5 0.8 19 1.6l4.3-3.7-3.5-4.3c-24.6-2.1-48.5-3.4-72.3-3.4 11.1-16.7 16.9-33.7 16.1-47.2q-1-8.2-4.2-14.6c-2.9-5.5-6.9-9.8-11.9-14l-4.3-2.9c19.1-6.9 37.9-12.8 57-17.5l2.7-5.1-4.8-2.6q-8.5 1.8-16.7 4.2-8.5 2.4-16.7 4.8-8.2 2.7-16.4 5.3-8.3 2.9-16.2 6.1c-15.6-5.8-37.4-7.2-62.6-4.2l4.3-2.2c46.9-12.7 96.2-22 146-25.4 2.1 5.6 3.5 11.4 3.5 17.5q0 7.5-2.4 14.3c-1.6 4.5-4 8.7-6.9 12.5-2.9 3.9-6.6 7.1-10.6 9.8-4 2.6-8.5 4.5-13 5.8-11.4 1.3-18.3 11.9-17 23q0.8 4 3 7.5 2.1 3.1 5.3 5.5 3.1 2.4 7.1 3.5 3.7 1 7.7 0.5l6.4-0.8c22.5 0 41.3 16.2 46.3 37.4q0.6 3.7 2.4 6.9 2.2 3.4 5.1 5.5 3.2 2.4 6.9 3.2 3.7 1.1 7.4 0.5c10.6-1.5 17.5-11.4 16.2-21.7l-0.8-6.3c0-6.1 1.3-12 3.4-17.5 2.4-5.6 5.8-10.6 10.1-14.9 4.2-4.2 9.3-7.7 14.6-10 5.5-2.2 11.6-3.5 17.4-3.5 11.4 0 22 4.2 30.5 11.7 8.2 7.7 13.5 18 14.9 29.1 1 10.9-1.9 22.3-8.2 31.3-6.7 9-16.2 15.6-27.3 18h0.7c-10.6 2.1-17.4 11.9-16.1 23.1 2.1 11.4 11.9 18.3 22.5 16.9l6.4-0.8c5 0 10 0.8 14.8 2.4 4.8 1.6 9.3 4 13.3 6.9 3.9 3.2 7.7 6.6 10.3 10.9 2.9 4.2 5 8.7 6.4 13.8 2.1 11.1 11.9 18.8 22.5 17.4l9.8-0.7c23.1 0 42.9 16.1 48.5 37.8 2.1 11.4 12.5 19.1 23.9 16.5h3.4c5.6 0 11.1 0.8 16.4 2.6 5.3 1.9 10.1 4.5 14.6 8.2 4.3 3.5 8 7.7 11.1 12.2 3 4.8 5.1 10.1 6.4 15.4 1.3 11.9 13.3 20.4 25.2 19.1h2.9c5.8 0 11.9 1 17.5 3.4 5.6 2.4 10.6 5.6 14.8 9.8 4.3 4.3 7.5 9.6 9.8 14.9 2.2 5.5 3.5 11.6 3.5 17.5 0 5-1.1 9.8-2.4 14.3-1.6 4.5-4 9-6.6 12.7q-4.4 6-10.4 10.3c-3.9 2.7-8.4 4.8-12.9 6.4q-3.8 0.5-7.2 2.4-3.4 1.8-5.8 5-2.2 3.2-3.2 6.9-1.1 3.7-0.8 7.4 0.5 3.7 2.6 7.2 1.9 3.4 4.8 5.8 3.2 2.4 6.9 3.5 3.7 0.8 7.4 0.5h5.1c6.3 0 12.7 1.3 18.5 3.7 5.8 2.4 11.1 6.1 15.7 10.6 4.5 4.2 8.2 9.8 10.6 15.6 2.3 5.9 3.7 12.2 3.7 18.6 0 23-15.4 42.1-36.6 46.9q-3.7 0.8-6.6 2.9-3.2 2.1-5.3 5-2.2 3-3.2 6.7-0.8 3.7-0.3 7.4 0.5 3.7 2.4 6.9 1.9 3.2 5 5.5 3.2 2.2 6.9 3 3.7 0.8 7.5 0h4.7c6.1 0 12.2 1.3 17.8 3.4 5.8 2.4 10.8 5.8 15.1 10.1 4.2 4.5 7.7 9.5 10.1 15.1 2.3 5.6 3.4 11.6 3.4 17.7 0 5.3-0.8 10.6-2.6 15.7-1.9 5-4.6 9.8-7.7 13.8-3.5 4.2-7.5 7.6-12.2 10.3-4.5 2.9-9.6 4.8-14.6 5.8q-3.4 0.8-6.6 2.9-2.9 1.9-5.1 4.8-2.1 2.9-2.9 6.4-0.8 3.7-0.2 7.1 0.8 3.5 2.6 6.7 2.1 2.9 5 5 3 1.8 6.4 2.9 3.4 0.8 7.2 0.3 3.4-0.6 6.6-2.7 3.2-1.8 5-4.8 2.1-3.1 2.9-6.6 0.8-3.4 0-7.1l-0.5-6.4c0-6.1 1.1-11.9 3.5-17.5 2.3-5.8 5.8-10.9 10-15.1 4.3-4.2 9.6-7.7 15.1-10.1 5.6-2.3 11.4-3.7 17.5-3.7 6.1 0 12.2 1.4 17.8 3.7 5.8 2.2 10.9 5.6 15.1 10.1 4.2 4.2 7.7 9.3 10.1 14.8 2.3 5.9 3.4 11.7 3.4 17.8 0 22.5-16.7 41.6-38.4 45.9q-4 0.5-7.2 2.6-3.2 2.1-5.3 5.3-2.4 3.2-3.2 6.9-0.5 3.7 0 7.7l0.8 8.2c0 21.2-14 40.8-33.1 45-10.3 0.8-17.5 9.9-15.9 20.5q0.3 3.7 2.1 7.1 1.9 3.2 4.8 5.6 3.2 2.4 6.6 3.4 3.7 1.1 7.4 0.8h4.3c6.1-0.2 12.4 1.1 18.3 3.5 5.5 2.3 10.8 5.8 15.3 10 4.5 4.5 8 9.6 10.4 15.4 2.4 5.8 3.7 11.9 3.7 18q0 8-2.4 15.1-2.8 7.6-7.2 13.5c-3.1 4.3-6.8 7.7-11.1 10.6-4.2 3-8.7 5.1-13.8 6.7q-3.7 0.5-7.1 2.6-3.5 1.9-5.6 5.1-2.4 3.1-3.2 7.1-0.8 3.7-0.2 7.7 0.5 3.7 2.6 7.2 2.1 3.1 5.3 5.5 3.2 2.4 6.9 3.2 3.7 0.8 7.7 0.3l2.9-0.8c6.1 0 11.9 1.3 17.8 3.4 5.5 2.4 10.6 5.8 14.8 10.1 4.5 4.5 7.7 9.5 10.1 15.1 2.4 5.6 3.4 11.7 3.4 17.7 0 6.1-1 12.2-3.4 17.8-2.4 5.6-5.6 10.9-10.1 15.1-4.2 4.2-9.3 7.7-14.8 10.1-5.9 2.4-11.7 3.4-17.8 3.4q-7.9 0-15.1-2.4c-5-1.6-9.5-4.2-13.5-7.4-4-3.2-7.7-6.9-10.4-11.1-2.9-4.5-4.7-9.3-6-14.1q-0.6-3.7-2.4-6.6-1.9-2.9-4.8-5-2.7-2.1-6.4-2.7-3.4-0.8-6.9 0-3.4 0.6-6.3 2.4-3.2 1.9-5.1 4.8-2.1 2.9-2.6 6.3-0.8 3.5 0 6.9 0.5 3.7 2.4 6.7 1.8 2.9 4.8 5 2.9 1.9 6.3 2.6 3.5 0.6 6.9-0.2h5c24.4 0 44.8 20.4 44.8 45 0 5.9-1 11.7-3.4 17.3-2.1 5.3-5.6 10.3-9.8 14.5-4 4.3-9 7.5-14.6 9.8-5.3 2.2-11.1 3.5-17 3.5-5.3 0-10.3-0.8-15.1-2.7-5-1.6-9.5-4.2-13.5-7.4-4-3.2-7.4-7.1-10.1-11.6-2.6-4.3-4.5-9.1-5.5-14.1-1.6-6.6-7.2-11.6-13.8-13-6.9-1-13.5 2.1-17.2 8-3.5 5.8-3.2 13.2 0.8 18.8 3.9 5.6 10.8 7.9 17.5 6.6l3.7-0.8c26.5 0 47.7 21.2 47.7 47.7 0 6.4-1.4 12.5-3.7 18.3-2.4 5.8-5.9 11.1-10.4 15.6-4.5 4.3-9.8 8-15.6 10.4-5.6 2.4-11.9 3.7-18 3.7-5.3 0-10.4-0.8-15.4-2.4q-7.2-2.4-13.5-7.1c-4-3.2-7.7-6.9-10.6-11.2-2.7-4.2-5.1-9-6.4-13.8-1.3-8.4-9.8-14-18.8-12.7-9 1.3-15.4 9.8-14.1 18zm0 0.3q0 0 0-0.3l4 8.3c-2.1-2.2-3.4-5.1-4-8zm-204.8-975q0-2.9-1.4-5.8-1-2.9-3.1-5.1-2.4-2.1-5.1-3.4-2.9-1.1-6.1-1.1-2.9 0-5.8 1.1-2.7 1.3-5 3.4-2.2 2.2-3.2 5.1-1.4 2.9-1.4 5.8 0 3.2 1.4 5.8 1 3 3.2 5.1 2.3 2.1 5 3.4 2.9 1.1 5.8 1.1c8.5 0 14.9-6.1 15.7-15.4zm63 67.9q2.7-1.4 4.8-3.2 2.1-2.1 3.2-4.8 1.1-2.9 1.1-5.8c0-8.2-6.9-14.6-14.6-14.6-8.5 0-14.9 6.9-14.9 14.6q0 2.9 1.4 5.8 1 2.7 3.1 4.8 1.9 1.8 4.8 3.2 2.7 1 5.6 1 2.9 0 5.5-1zm76.9 56.9q2.7-1 4.8-3.1 1.8-1.9 2.9-4.6 1.1-2.6 1.1-5.3c0-7.6-6.4-14-14.1-14-3.4 0.3-6.9 1.9-9.3 4.2-2.6 2.7-3.9 6.1-3.9 9.8 0 3.5 1.3 6.9 3.9 9.6 2.4 2.6 5.9 4.2 9.3 4.5q2.9 0 5.3-1.1zm88 39.8c0-9.3-7.7-17-16.7-17-9.3 0-17 7.2-17 17q0 3.2 1.4 6.3 1.3 3.2 3.7 5.6 2.4 2.4 5.3 3.7 3.2 1.3 6.6 1.1c9.8 0 17.5-7.7 16.7-16.7zm-94.6 289.7q1.6-0.6 2.6-1.6 1.1-1.4 1.6-2.7 0.6-1.3 0.6-2.9 0-1.6-0.6-2.9-0.5-1.3-1.6-2.7-1-1-2.6-1.6-1.3-0.5-2.9-0.5-1.6 0-3 0.5-1.3 0.6-2.3 1.6-1.1 1.4-1.9 2.7-0.5 1.3-0.5 2.9 0 1.6 0.5 2.9 0.8 1.3 1.9 2.7 1 1 2.3 1.6 1.4 0.5 3 0.5 1.6 0 2.9-0.5zm62.5-84.6c0-6.4-5-11.1-11.4-11.1-6.3 0-11.1 4.7-11.1 11.1q0 2.4 0.8 4.5 0.8 1.9 2.4 3.5 1.6 1.6 3.7 2.6 2.1 0.8 4.2 0.8c5.6 0 10.6-5 11.4-11.4zm14.9 141.3q2.4-1.1 4-2.7 1.5-1.6 2.6-4 0.8-2.1 0.8-4.5c0-7.1-5.6-11.9-11.9-11.9-6.4 0-12 5.6-12 11.9q0 2.4 1.1 4.5 1.1 2.2 2.7 3.7 1.5 1.9 3.7 2.7 2.1 1.1 4.5 1.1 2.4 0 4.5-0.8zm24.9-200.4q3.2 0 6.1-1 2.6-1.4 5-3.5 2.1-2.1 3.2-5 1.3-2.7 1.3-5.9 0-2.9-1.3-5.8-1.1-2.9-3.4-5-2.2-2.1-4.8-3.5-2.9-1-6.1-1c-9 0-15.9 6.9-15.9 15.3 0 9.3 7.7 16.2 15.9 15.4zm42.9 113.4q0-3.7-1.3-6.9-1.3-3.1-3.7-5.8-2.7-2.4-5.8-3.7-3.2-1.3-6.7-1.3c-9.2 0-16.9 7.7-16.9 17.7q0 3.2 1.3 6.4 1.3 2.9 3.7 5.3 2.4 2.4 5.6 3.7 2.9 1.3 6.3 1.3c9.8 0 17.5-7.7 17.5-16.7zm-149.5 363.9q0-1.3-0.5-2.9-0.8-1.3-1.8-2.4-1.1-1.1-2.4-1.8-1.4-0.6-2.9-0.6-1.6 0-3 0.8-1.6 0.5-2.6 1.6-1.1 1.1-1.6 2.4-0.5 1.6-0.5 2.9 0 1.6 0.5 3.2 0.5 1.3 1.6 2.4 1 1 2.6 1.6 1.4 0.5 3 0.8c4.7 0 8.4-3.8 7.6-8zm28.2-208c0-4.3-3.1-7.7-7-7.7-3.9 0-7.1 3.4-7.1 7.7 0 4.2 3.2 7.7 7.1 7.7 3.9 0 7-3.5 7-7.7zm22.5 139.9q1.8-0.8 3.1-2.1 1.6-1.6 2.2-3.2 0.8-1.9 0.8-3.7c0-5.8-4-10.1-9.8-10.1-5.6 0-9.9 4.3-9.9 10.1q0 1.8 0.8 3.7 0.8 1.9 2.2 3.2 1.3 1.3 3.1 2.1 1.9 0.8 3.8 0.8 2.1 0 3.7-0.8zm53.2-73.9q2.2-0.8 3.8-2.4 1.5-1.6 2.3-3.7 0.8-2.2 0.8-4.3c0-6.3-4.7-11.4-11.1-11.4-6.4 0-11.1 5.1-11.1 11.4q-0.3 2.1 0.8 4.3 0.8 2.1 2.3 3.7 1.6 1.6 3.8 2.4 1.8 0.8 4.2 0.8 2.1 0 4.2-0.8zm72.9 26.7c-9 0-16.7 7.2-16.7 17q0 3.4 1.4 6.3 1.3 3.2 3.4 5.6 2.4 2.4 5.6 3.7 3.1 1.3 6.3 1.3c9.8 0 17.5-7.9 17.5-16.9 0-9.8-7.7-17.5-17.5-17zm-35.8-117.1q0 2.6 1.1 5 1.1 2.4 2.9 4.3 1.9 1.8 4.3 2.9 2.3 1 5.3 1c3.4 0 6.9-1.3 9.2-3.9 2.7-2.4 4-5.9 4-9.3 0-3.7-1.3-7.2-4-9.6-2.3-2.6-5.8-3.9-9.2-3.9-7.2 0-13.6 6.3-13.6 13.5zm-29.4 209.9q0 2.6 0.8 5 1.1 2.4 2.9 4 1.9 1.8 4 2.9 2.4 0.8 5 0.8 2.4 0 4.8-0.8 2.4-1.1 4-2.9 1.9-1.6 2.9-4 0.8-2.4 0.8-5c0-6.9-5.6-12.5-12.5-12.5-7.1 0-12.7 5.6-12.7 12.5zm-52.5 80q0.8 2.1 2.7 3.7 1.6 1.9 3.7 2.7 2.4 0.8 4.8 0.8 2.4 0 4.5-0.8 2.1-1.1 3.7-2.7 1.6-1.6 2.6-4 0.8-2.1 1.1-4.5c0-6.3-5.6-11.9-11.9-11.9-6.4 0-11.9 5.6-11.9 11.9q0 2.4 0.7 4.8zm-192.6 308.5q2.6-1.1 4.5-3.2 2.1-1.8 3.1-4.5 1.1-2.6 1.1-5.3c0-7.7-6.4-14-14-14-3.8 0-7.2 1.6-9.9 4.2-2.3 2.7-3.7 6.1-3.7 9.8 0 3.7 1.4 7.2 3.7 9.8 2.7 2.7 6.1 4 9.9 4.3q2.6 0 5.3-1.1zm50-74.5q2.2-0.8 4-2.6 1.9-1.9 2.7-4.3 1-2.1 1-4.7c0-6.9-5.5-12.8-12.7-12.8-6.9 0-12.4 5.9-12.4 12.8q0 2.6 0.8 4.7 1 2.4 2.6 4.3 1.9 1.8 4.2 2.6 2.4 1.1 4.8 1.1 2.7 0 5-1.1zm78.2 58.1q2.7-1.1 5.1-3.2 2.1-2.4 3.2-5.1 1.3-2.9 1.3-5.8 0-3.2-1.3-6.1-1.1-2.6-3.2-4.7-2.4-2.4-5.1-3.5-2.9-1.3-5.8-1.3-3.2 0-6.1 1.3-2.6 1.1-4.8 3.5-2.3 2.1-3.4 4.7-1.3 2.9-1.3 6.1 0 2.9 1.3 5.8 1.1 2.7 3.4 5.1 2.2 2.1 4.8 3.2 2.9 1.3 6.1 1.3 2.9 0 5.8-1.3zm55.4-78.7q3-1.1 5.1-3.2 2.1-2.4 3.2-5.1 1.3-2.9 1.3-5.8 0-3.2-1.3-6.1-1.1-2.6-3.2-5-2.1-2.1-5.1-3.2-2.9-1.3-5.8-1.3-3.2 0-5.8 1.3-2.9 1.1-5.1 3.2-2.1 2.4-3.4 5-1.1 2.9-1.1 6.1 0 2.9 1.1 5.8 1.3 2.7 3.4 5.1 2.2 2.1 5.1 3.2 2.6 1.3 5.8 1.3 2.9 0 5.8-1.3zm-289.9 248.3q2.9-1.4 5-3.5 2.1-2.1 3.5-5 1-2.9 1-5.8 0-3.2-1-5.9-1.4-2.9-3.5-5-2.1-2.1-5-3.4-2.7-1.1-5.9-1.4-2.9 0.3-5.8 1.4-2.9 1.3-5 3.4-2.1 2.1-3.2 5-1.3 2.7-1.3 5.9 0 2.9 1 5.8 1.4 2.9 3.5 5 2.1 2.1 5 3.5 2.9 1 5.8 1 3.2 0 5.9-1zm-48.3-1262.8q-13 7.9-25.9 15.9-13.3 7.7-26.5 14.8-13.6 7.4-27.3 14.3l-6.1 2.9-3-6.3-60.4-120.3 6.4-2.7q9.2-5 18.3-10.1 9-5.3 18-10.6 8.7-5.5 17.5-11.4 8.7-5.5 17.2-11.6l1.3-0.8c45.6 18.3 94.1 43.7 143.2 75.3-14.9 11.3-30.8 22.5-47 33.9q-12.7 8.5-25.7 16.7zm0.3-20.4q0 1.8 0.8 3.4 0.8 1.9 2.1 2.9 1.1 1.3 2.9 2.1 1.6 0.8 3.5 0.8c4.7 0 9-4.2 9-9.2 0-4.8-4.3-9-9-9-5.1 0-9.3 4.2-9.3 9zm-77.9-54.1q0.2 2.1 1 4 0.8 1.8 2.2 3.4 1.5 1.3 3.4 2.4 1.9 0.8 4 0.8 2.1 0 3.9-0.8 1.9-1.1 3.5-2.4 1.3-1.6 2.4-3.4 0.8-1.9 0.8-4c0-5.6-5.1-10.6-10.6-10.6-6.4 0-10.6 5-10.6 10.6zm69.7-61.5q2.6-1 4.7-3.2 2.2-2.1 3.2-4.7 1.1-2.9 1.1-5.9c0-8.4-6.4-14.5-14.9-14.5-7.6 0-14.5 6.1-14.5 14.5q0 3 1 5.6 1.1 2.9 3.2 5 2.1 1.9 4.8 3.2 2.6 1.1 5.5 1.1 3 0 5.9-1.1zm80.8 48c2.7-2.7 4-6.1 4-9.6 0-3.7-1.3-7.1-4-9.8-2.4-2.6-5.8-4.2-9.3-4.2-3.7 0-7.1 1.6-9.5 4.2-2.4 2.7-4 6.1-4 9.8 0 3.5 1.6 6.9 4 9.6 2.4 2.6 5.8 4.2 9.5 4.5 3.5-0.3 6.9-1.9 9.3-4.5z"/>
				<path id="path196" fill-rule="evenodd" class="s0" d="m475.5 1521.8l-33.7-23.3q-12.2-9-24.1-18.5-11.6-9.6-22.8-19.9-11.1-10.1-21.7-20.9-10.6-10.9-20.7-22c14.9 1.3 29.7 1.8 45.6 1.8 35.8 0 75.3-2.6 117.4-9l30.8-5c25.1-4.8 51.1-9.8 76.6-16.2l18.8-4.8 8.5 11.2q9 12.4 18.5 24.6 9.6 12.2 19.4 23.9 10 11.6 20.6 23 10.4 11.2 21.5 22l6.4 6.4-37.9 9q-9 1.8-18.1 3.7-8.7 1.6-17.7 3.2-9 1.6-18 2.9-8.8 1.6-17.8 2.9c4.8-2.6 7.7-6.9 7.7-12.7 0-8.2-7.2-14.6-14.8-14.6-8.5 0-14.6 6.9-14.6 14.6q0 2.6 0.8 4.8 0.8 2.3 2.1 4.2 1.6 2.1 3.7 3.2 2.1 1.3 4.5 1.8c-36.6 5.1-71 7.2-102.6 6.4zm-130.6-114.5l-10.4-11.9c-31-37.4-57.8-78.2-80.8-120.9l-6.9-14 11.1 0.5c87.8 5.8 178.9-8.5 263.8-28.1l27.5-6.3 11.9 23.3q8.3 15.9 17 31.8 8.8 15.9 18 31.3 9.3 15.3 19.1 30.7 9.8 15.1 20.4 30l1.3 2.6-16.1 4.2c-25.2 6.4-51.2 11.4-76.6 16.2l-30.8 5c-63.8 9.1-120.8 11.2-168.5 5.6zm190.3 43.5q0 1.6 0.5 3.2 0.5 1.3 1.6 2.3 1.3 1.1 2.6 1.6 1.4 0.6 3 0.8 1.5 0 2.9-0.8 1.3-0.5 2.6-1.6 1.1-1 1.6-2.3 0.5-1.6 0.5-3.2 0-1.4-0.5-2.9-0.5-1.4-1.6-2.4-1.3-1.1-2.6-1.6-1.4-0.8-2.9-0.8c-4.3 0-7.7 2.9-7.7 7.7zm-102.6-1364.3l5.6-2.7 0.8-0.8c33.6-16.9 67.3-29.7 98.8-37.3q-9.3 7.6-18.3 15.9-9 7.9-17.5 16.7-8.4 8.7-16.4 18-7.7 9.2-15.1 19.1l-12.5 20.4-4.2-7.7zm129.6 274l-6.1 3.4c-36.6 19.1-74.5 35.3-111.6 48.5-19.1 6.4-37.3 12.8-55.6 17.8l2.1-22.5c4.2-45.9 11.4-92.3 22.5-137l1.3-1.6c25.5-7.7 51.5-18.8 77.4-31.6l6.4-2.9 60.2 120.3zm-136-222.8q-12.2 0-24.4 0.8-12.2 0.7-24.1 2.3-12.2 1.6-24.1 4-12 2.4-23.6 5.6c24.6-21.2 55.4-40.8 88.2-57.8l6.4-2.6 21.2 41.3 4.2 7.7zm-8.4 13.5q-8.5 2.4-17 5.3-8.2 2.9-16.4 5.8-8.2 3.2-16.5 6.4-12.2 5-24.1 10.3-11.9 5.6-23.6 11.4-11.6 5.8-23 12.2-11.4 6.4-22.6 13.3c6.9-14.1 18.9-30.3 35-46.4l6.4-6.4c32.3-11.4 68.6-16.9 110.2-17.5l8.3 0.6q-8.5 2.3-16.7 5zm-252.1 225l-27.3 36.3-2.1 2.9-4.8-8.5c-5.8-11.9-7.9-25.9-5-42.1l0.8-2.6 0.5-2.2c35.8-48.5 80.8-90.9 132.8-125.9l-0.8 5.6q0 2.4 0.3 4.5 0.2 2.4 0.8 4.5 0.5 2.1 1.3 4.5 0.8 2.1 1.8 4l3.5 5.8 2.9 2.7-2.1 2.1-34.5 32.3-1.3 1.4-33.1 35.2-0.6 0.8-31 36.6zm106-122.5c-2.1-4.2-2.9-9-2.9-14 0-3.5 0.8-6.9 1.6-11.1q11.9-7.7 24.1-14.9 12.2-6.9 24.7-13.2 12.7-6.7 25.4-12.5 13-5.8 26-10.9c16.2-7.1 33.7-12.7 51.4-18.2-51.9 28.8-100.4 63.3-146 101.2zm9.8 89.8q-8 13.3-15.4 26.5-7.7 13.3-14.6 26.8-7.1 13.5-13.5 27.3-6.6 13.8-12.7 27.8-36.8-3.1-61-14.8l-11.4-6.4-1.3-0.5-8.5-7.2-0.5-0.8 1.3-2.1q14.1-20.1 29.2-39.5 15.4-19.3 31.5-37.9 16.5-18.2 34-35.7 17.4-17.3 35.7-33.7l2.2-1.3c9.8 6.9 25.4 11.9 44.2 12.7-14 18.8-27.3 38.4-39.2 58.8zm67.6-60.1q9.3-0.8 18.3-2.4 9.2-1.3 18.3-3.2 9-2.1 18-4.5-4.8 19.9-8.8 39.8-3.9 19.8-6.9 40-2.9 19.9-5 40-2.1 20.1-3.2 40.5-7.7 1.9-15.3 3.8-7.7 1.8-15.4 3.7-8 1.6-15.7 3.1-7.6 1.4-15.3 2.7h-0.8q-39 6.4-78 6.4l-5.5-0.8q5.8-13.3 11.9-26.5 6.4-13.3 13.3-26.3 6.6-13.2 13.7-25.9 7.5-12.8 15.2-25.2 5-8.2 10-16.2 5.3-8.2 10.6-16.2 5.3-7.9 10.9-15.9 5.6-7.9 11.1-15.6 9.3-0.5 18.6-1.3zm73.4 297.9h-34.5c-2.1-43.8-2.6-85.9-0.5-126.7l0.5-15.4c19.1-4.8 38.7-11.1 58.4-18.3q14.5-5 28.8-10.6 14.4-5.5 28.4-11.6 14.3-6.1 28.1-12.8 14-6.3 27.6-13.5l6.3-3.4 73.7 148.4 4.2 7.7-6.3 3.4q-16.4 8.2-33.1 16.2-16.7 7.9-33.7 15.4-17 7.6-34.2 14.5-17 7.2-34.5 13.5l-28.6 10.7-9.3 2.9-19.6 6.3-4.2 1.4zm-63.9 59.6l28.9 40.8q1.9 15.9 4 31.8 2.1 15.6 4.5 31.3 2.4 15.9 5.3 31.5 2.6 15.6 5.8 31.3l5.1 23.8-17 4.3c-74.5 18.3-156.4 31-233.8 26.7l-10.3-0.8v-32.8l0.5-16.2h189.5c0.8-7.1 1.3-17.7 1.3-30.5 0-50.3-13.2-95.4-38.4-130.6q26.3-4.3 54.6-10.6zm-339.5 175.2h120.6l-0.5 15.3v32.4l-8.5-1.4c-37.9-5-77.2-14.8-109-37.9l-2.1-1.6z"/>
				<path id="path198" fill-rule="evenodd" class="s0" d="m407.4 1000.3l33.6-49.3 4.8 16.2 4.3 12.7 7.1 21.7 4.3 11.9 6.3 19.7-12.7 3.7c-83 19.6-175.5 34.9-260.3 30.2l-19.9-1.6-4.7-23.9-4.3-19.6-2.1-13.5c71.6-3.4 124.8-32.3 165.7-75l-57.6-54.9c-30.2 32.9-70.2 52-117.9 52.8v-1.6l-2.9-46.9v-13.5l10.6 0.8c81.4 4.2 165.6-9.3 244.9-28.9l7.7-2.1 0.8 4.2-112.4 156.9m319.4-0.8h106l-26.8-37.4q16.2-6.6 31.8-13.5 15.9-6.9 31.6-14 15.9-7.2 31.2-14.6 15.7-7.7 31.1-15.4l6.3-2.9 87 173.6-6.1 3.7q-16.7 8.2-33.2 16.2-16.7 8.2-33.4 15.9-16.7 7.7-33.6 15.1-17 7.4-34 14.6c-77.1 32.3-154.5 59-228.2 77.9-18.3-37.1-35-76.6-51.1-117.2l-11.9-31.8-3.5-10.6-7.1-19.6 26.7-7.7 21-5.5 31.8-9.8 18.8-6.4 34.4-11.9 7.7-2.9 3.5 5zm-105.3-158.2l97.6 146.8-39.2 14-24.7 7.7-26.8 8.5-23 6.4-25.2 7.1-5-15.6-5.6-16.7-5.6-19.1-5-15.4-6.4-23.3zm-57.5-59.6l-32.8 46.4-5.6 1.3-4.3-21.7c-7.1-33.7-11.9-67.6-16.9-101.3l-1.3-11.4zm118.4-3.9l113.2-161.2 44.8 89.3-6.4 3.5c-48.2 24.6-97.5 47.2-146.5 66.2zm138.3-196.1h-33.6l-26.8-52.7 6.4-2.9q16.4-8.5 32.8-17.3 16.5-8.7 32.6-18 16.2-9.3 32.1-18.8 15.9-9.5 31.5-19.6l26-17.8q7.4-5 14.9-10.3 7.6-5.3 14.8-10.6 7.4-5.3 14.8-10.9 7.2-5.3 14.4-11.1l12.7-9.8 24.6 22c34.2 32.3 68.1 65.2 99.7 100.4l16.2 18.3q-17 13.3-34.2 26-17 12.7-34.5 24.9-17.5 12.5-35.2 24.1-17.8 11.9-35.8 23.3-17.3 10.6-34.5 21-17.5 10.1-35 20.1-17.5 9.8-35.2 19.1-17.8 9.5-35.8 18.6l-6.4 3.4-46.9-93.3zm242-77.4q0 2.7 1.1 5.1 1 2.3 2.9 4.5 1.8 1.8 4.2 2.6 2.7 1.1 5.3 1.1 2.7 0.2 5.1-0.8 2.6-1.1 4.5-2.9 1.8-1.9 2.9-4.5 0.8-2.4 0.8-5.1c0-7.1-5.6-13.5-13.3-13.5-7.1 0-13.5 5.8-13.5 13.5zm-49 75.8q0 1.9 0.8 3.5 0.8 1.8 1.8 3.1 1.4 1.1 2.9 1.9 1.9 0.8 3.8 0.8c4.7 0 9-4.2 9-9.3 0-4.7-4.3-9-9-9-5.1 0-9.3 4.3-9.3 9zm-21.8-129.3q0 2.4 0.8 4.5 0.8 1.9 2.4 3.4 1.6 1.6 3.7 2.7 2.2 0.8 4.3 0.8 2.4 0 4.5-0.8 2.1-1.1 3.4-2.7 1.6-1.5 2.7-3.4 0.8-2.1 0.8-4.5c0-6.4-5.1-11.1-11.4-11.1-6.1 0-11.2 4.7-11.2 11.1zm-52.7 78.7q0 1.6 0.5 2.7 0.6 1.3 1.6 2.3 1.1 1.1 2.4 1.6 1.3 0.6 2.7 0.6c1.8 0 3.7-0.8 5-2.2 1.3-1.3 1.8-3.1 1.8-5 0-1.8-0.5-3.4-1.8-4.8-1.3-1.3-3.2-2.1-5-2.1-4.3 0-7.2 2.7-7.2 6.9z"/>
				<path id="path200" class="s0" d="m824.3 896.9l6.4-2.9-5.1-8.5-86.4-171.4-6.3 2.9q-17.8 9-36.1 17.7-18.3 8.8-36.6 17-18.5 8.5-37.1 16.2-18.8 7.7-37.6 15.1l-8.2 3.4 119.8 169.6c42.9-18.3 85.1-38.1 127.2-59.1z"/>
				<path id="path202" class="s1" d="m970.9 1172.3h-1.3l4.7 10.1 1.6-0.8v-0.8q-0.3-1.1-0.8-2.4-0.2-1.1-1-2.1-0.6-1.4-1.4-2.2-0.8-1-1.8-1.8z"/>
				<path id="path204" fill-rule="evenodd" class="s0" d="m254.4 749.3h-230.3c4.3-50.1 33.2-88 78.7-101.2l16.7-3.5c6.4-0.8 13.3-1.5 20.4-1.5q3.2 0 6.1 0.2 3.2 0 6.4 0.3 2.9 0.2 6.1 0.8 2.9 0.2 6.1 0.8l7.7 1.3 18.3 6.4 15.3 8.4c26 17 44.3 46.4 48.5 88zm-224.4-157.4l3.4 6.1c-9 5.8-17.5 11.4-26 17.8l6.4-24.7 7.7-22.5q0.5 2.4 1.3 4.8 0.5 2.6 1.3 5 0.8 2.1 1.9 4.5 0.8 2.4 1.8 4.8v0.5zm35.8-135.4c27.3-61.3 46.9-90.1 63.1-111.9-4.2 8.5-4.8 11.2-6.4 15.4l-2.1 2.9-6.9 10.6-16.9 27.3v0.8l-12.2 21.2-11.7 21.7q-5.6 10.9-11.1 22-5.3 10.9-10.6 22l-2.7 5.9-0.8 1.3h-0.8l-0.5-0.8 11.9-26.5h0.6v-1.6zm66.7-33.7c-22.5 33.2-42.1 68.2-59.6 103.4-10.6 21.7-19.6 43.5-28.1 66l-4.2 2.1-4.3-6.3-1.3-3.5c-4.2-9.8-7.1-20.4-7.7-31.5q8.8-23.1 18.8-45.6 10.1-22.3 21.5-44.3 11.4-21.7 23.9-42.9 12.7-21.2 26.2-41.6c0 11.9 2.1 23 7.2 32.9zm642.2 1062.9l-8.5 2.2-5 1.3-15.4 4.2-7.2-7.1-1.8-1.4zm-577.3-313.7q4.8 13.7 10.1 27.3 5.5 13.7 11.1 27 5.8 13.5 11.9 26.8c-26.5-2.7-51.1-8.5-72.9-15.4-23.8-7.7-45.5-19.1-61.7-32.4l-7.7-6.3q-12.5-22-23.6-45.1-11.1-22.8-20.7-46.3-9.5-23.6-17.7-47.7-8-23.9-14.6-48.5l5 4.2q4 3.7 8.5 7.4 4.3 3.7 8.8 6.9 4.7 3.5 9.5 6.6l9.5 5.9 12 6.1c30.2 14 63.3 21.2 96.2 25.4l7.1 0.8 6.4 23.1 2.7 11.3 10.6 35q4.5 14.1 9.5 27.9zm1251.6-806.8l1.3-7.6 18.3 29.6c-10.4-1.5-18.8-10.6-19.6-22zm110.2 620.5q0.8-2.7 2.1-4.8 1.6-2.4 3.5-4.3 1.8-1.8 4.2-3.1l-7.1 28.6c-2.1-2.7-3.5-6.9-3.5-11.1q0-2.7 0.8-5.3z"/>
			</g>
		</g>
	</g>
</svg>